<svg xmlns="http://www.w3.org/2000/svg" xmlns:xlink="http://www.w3.org/1999/xlink" width="129.333" height="129.333" viewBox="0 0 129.333 129.333"><defs><clipPath id="a"><path d="M0-682.665H129.333v129.333H0Z" transform="translate(0 682.665)"/></clipPath></defs><g transform="translate(0 682.665)"><g transform="translate(0 -682.665)"><g clip-path="url(#a)"><g transform="translate(18.628 8.783)"><path d="M0-87.372v9.036a8.874,8.874,0,0,0,8.865,8.872m64.522-24.4v-11.12a2.816,2.816,0,0,0-2.807-2.807H2.8A2.817,2.817,0,0,0,0-104.987v9.036" transform="translate(0.004 107.794)" fill="none" stroke="#7d8c48" stroke-linecap="round" stroke-linejoin="round" stroke-miterlimit="10" stroke-width="3"/></g><g transform="translate(27.493 22.714)"><path d="M-113.592-104.389h-26.55a8.863,8.863,0,0,0,8.821-8.865v-6.659a8.881,8.881,0,0,1,9.115-8.872" transform="translate(140.142 128.788)" fill="none" stroke="#7d8c48" stroke-linecap="round" stroke-linejoin="round" stroke-miterlimit="10" stroke-width="3"/></g><g transform="translate(45.222 22.71)"><path d="M-37.741-273.384v33.941H35.654v-88.968A8.9,8.9,0,0,0,27-337.283H-46.563a8.873,8.873,0,0,1,8.821,8.872v46.443" transform="translate(46.563 337.283)" fill="none" stroke="#7d8c48" stroke-linecap="round" stroke-linejoin="round" stroke-miterlimit="10" stroke-width="3"/></g><path d="M45.3-86.706H74.03v-9.43H45.3Z" transform="translate(-36.72 207.256)" fill="none" stroke="#7d8c48" stroke-linecap="round" stroke-linejoin="round" stroke-miterlimit="10" stroke-width="3"/><path d="M10-136.452H38.728v-9.423H10Z" transform="translate(-8.105 247.572)" fill="none" stroke="#7d8c48" stroke-linecap="round" stroke-linejoin="round" stroke-miterlimit="10" stroke-width="3"/><g transform="translate(1.894 73.413)"><path d="M-43.1,0H-53.18V9.43h28.728V0H-34.527" transform="translate(53.18)" fill="none" stroke="#7d8c48" stroke-linecap="round" stroke-linejoin="round" stroke-miterlimit="10" stroke-width="3"/></g><path d="M72.1-186.22h28.728v-9.43H72.1Z" transform="translate(-58.439 287.917)" fill="none" stroke="#7d8c48" stroke-linecap="round" stroke-linejoin="round" stroke-miterlimit="10" stroke-width="3"/><path d="M72.1-235.967h28.728v-9.423H72.1Z" transform="translate(-58.439 328.233)" fill="none" stroke="#7d8c48" stroke-linecap="round" stroke-linejoin="round" stroke-miterlimit="10" stroke-width="3"/><g transform="translate(77.645 43.783)"><path d="M-112.062-91.108c0,2.814-1.962,5.1-4.389,5.1s-4.389-2.284-4.389-5.1,1.962-5.105,4.389-5.105S-112.062-93.93-112.062-91.108Zm-17.414-16.19c0,2.814-1.962,5.1-4.389,5.1s-4.389-2.284-4.389-5.1,1.962-5.105,4.389-5.105S-129.476-110.119-129.476-107.3Zm9.445-4-9.931,23.68" transform="translate(138.254 112.404)" fill="none" stroke="#7d8c48" stroke-linecap="round" stroke-linejoin="round" stroke-miterlimit="10" stroke-width="3"/></g><g transform="translate(66.367 32.606)"><path d="M-104.279-208.563a24.42,24.42,0,0,0,24.374-24.374,24.42,24.42,0,0,0-24.374-24.374,24.42,24.42,0,0,0-24.374,24.374A24.42,24.42,0,0,0-104.279-208.563Z" transform="translate(128.653 257.311)" fill="none" stroke="#7d8c48" stroke-linecap="round" stroke-linejoin="round" stroke-miterlimit="10" stroke-width="3"/></g><g transform="translate(66.367 91.078)"><path d="M0-36.7H48.748M0-28.13H35.831M0-45.279H48.748" transform="translate(0 45.279)" fill="none" stroke="#7d8c48" stroke-linecap="round" stroke-linejoin="round" stroke-miterlimit="10" stroke-width="3"/></g></g></g></g></svg>