<svg xmlns="http://www.w3.org/2000/svg" width="121" height="121" viewBox="0 0 121 121"><g transform="translate(-1.5 -1.5)"><path d="M101.379,1.5H9.586A2.085,2.085,0,0,0,7.5,3.586V28.621a2.086,2.086,0,1,0,4.172,0V5.672H99.293V78.69a2.086,2.086,0,1,0,4.172,0V3.586A2.085,2.085,0,0,0,101.379,1.5Z" transform="translate(19.034 0)" fill="#7d8c48"/><path d="M120.414,23.5a2.085,2.085,0,0,0-2.086,2.086v8.345a14.6,14.6,0,1,1-29.207,0,2.085,2.085,0,0,0-2.086-2.086H30.707V25.586a2.086,2.086,0,0,0-4.172,0v6.259H3.586A2.085,2.085,0,0,0,1.5,33.931,18.8,18.8,0,0,0,20.276,52.707h83.448A18.8,18.8,0,0,0,122.5,33.931V25.586a2.085,2.085,0,0,0-2.086-2.086ZM20.276,48.534A14.63,14.63,0,0,1,5.819,36.017H85.062a18.782,18.782,0,0,0,6.874,12.517Z" transform="translate(0 69.793)" fill="#7d8c48"/><path d="M12.586,8.672H79.345a2.086,2.086,0,0,0,0-4.172H12.586a2.086,2.086,0,1,0,0,4.172Z" transform="translate(28.552 9.517)" fill="#7d8c48"/><path d="M12.586,11.672H79.345a2.086,2.086,0,0,0,0-4.172H12.586a2.086,2.086,0,1,0,0,4.172Z" transform="translate(28.552 19.034)" fill="#7d8c48"/><path d="M28.621,63.741A27.121,27.121,0,1,0,1.5,36.621,27.121,27.121,0,0,0,28.621,63.741Zm0-50.069A22.948,22.948,0,1,1,5.672,36.621,22.948,22.948,0,0,1,28.621,13.672Z" transform="translate(0 25.379)" fill="#7d8c48"/><path d="M10.759,25.017A6.259,6.259,0,1,0,4.5,18.759a6.259,6.259,0,0,0,6.259,6.259Zm0-8.345a2.086,2.086,0,1,1-2.086,2.086A2.086,2.086,0,0,1,10.759,16.672Z" transform="translate(9.517 34.897)" fill="#7d8c48"/><path d="M14.759,16.5a6.259,6.259,0,1,0,6.259,6.259A6.259,6.259,0,0,0,14.759,16.5Zm0,8.345a2.086,2.086,0,1,1,2.086-2.086A2.086,2.086,0,0,1,14.759,24.845Z" transform="translate(22.207 47.586)" fill="#7d8c48"/><path d="M6.586,41.707A2.08,2.08,0,0,0,8.061,41.1L33.1,16.061a2.086,2.086,0,1,0-2.95-2.95L5.111,38.146a2.086,2.086,0,0,0,1.475,3.561Z" transform="translate(9.518 34.897)" fill="#7d8c48"/><path d="M60.31,13.5H18.586A2.085,2.085,0,0,0,16.5,15.586V48.966a2.085,2.085,0,0,0,2.086,2.086H60.31A2.085,2.085,0,0,0,62.4,48.966V15.586A2.085,2.085,0,0,0,60.31,13.5ZM29.017,46.879H20.672V26.017h8.345Zm0-25.034H20.672V17.672h8.345Zm16.69,25.034H33.19V26.017H45.707Zm0-25.034H33.19V17.672H45.707ZM58.224,46.879H49.879V26.017h8.345Zm0-25.034H49.879V17.672h8.345Z" transform="translate(47.586 38.069)" fill="#7d8c48"/><path d="M60.31,10.5H18.586a2.086,2.086,0,1,0,0,4.172H60.31a2.086,2.086,0,0,0,0-4.172Z" transform="translate(47.586 28.552)" fill="#7d8c48"/><ellipse cx="2" cy="2.5" rx="2" ry="2.5" transform="translate(118.5 84.5)" fill="#7d8c48"/></g></svg>