<svg xmlns="http://www.w3.org/2000/svg" xmlns:xlink="http://www.w3.org/1999/xlink" width="292" height="187" viewBox="0 0 292 187"><defs><clipPath id="a"><rect width="292" height="187" rx="21" transform="translate(185.348 3106)" fill="#e3f1fa"/></clipPath></defs><g transform="translate(-185.348 -3106)"><rect width="292" height="187" rx="21" transform="translate(185.348 3106)" fill="#e1e9c2"/><g clip-path="url(#a)"><g transform="translate(172.915 3058.757)"><g transform="translate(105.01 60.894)"><path d="M188.615,202.481H128.822A8.822,8.822,0,0,1,120,193.659V69.716a8.822,8.822,0,0,1,8.822-8.822h59.793a9.8,9.8,0,0,1,9.8,9.8V192.679A9.8,9.8,0,0,1,188.615,202.481Z" transform="translate(-120 -60.894)" fill="#232d3b"/><g transform="translate(8.059 8.713)"><path d="M201.684,202.833h-62.3a2.94,2.94,0,0,1-2.941-2.941V81.613a2.94,2.94,0,0,1,2.941-2.941h62.3a2.94,2.94,0,0,1,2.941,2.941v118.28A2.94,2.94,0,0,1,201.684,202.833Z" transform="translate(-136.444 -78.672)" fill="#586f8c"/><path d="M136.445,114.688l36.619-36.016h21.381l-58,57.044Zm0,85.2v.014l68.179-66.569V94.592l-68.18,66.981Z" transform="translate(-136.445 -78.672)" fill="#3a4d63"/></g></g><g transform="translate(90.601 99.576)"><path d="M208.18,266.539l-53.167,7.7s-9.8-14.072-14.047-17.919c-4.226-3.831-9.712-8.194-15.153-13.594h47.812a9.8,9.8,0,0,0,9.8-9.8V155.986c0-4.287,2.64-8.6,6.823-8.6,5.079,0,5.666,6.568,5.666,9.479,0,18.63,9.022,39.362,9.022,46.589,0,12.307-6.805,23.276-6.805,39.429C198.133,251.016,200.709,252.8,208.18,266.539Zm-101-74.528c2.87-1.469,4.233-5.369,4.233-8.466,0-4.46-3.945-9.491-6.4-12.451V141.433a16.389,16.389,0,0,0-5.816-1.614c-3,0-5.482,3.361-5.482,6.684a6.065,6.065,0,0,0,.383,2.156c2.248,5.9,7.149,9.912,10.42,13.153-7,1.947-13.914,6.924-13.914,14.31,0,4.756,4.959,10.579,4.959,10.579-2.362.935-4.865,3.1-4.865,7.929a14.138,14.138,0,0,0,4.952,10.657c-1.865.968-3.216,3.593-3.216,6.684,0,3.937,6.9,11.036,12.578,11.036,7.073,0,6.153-8.09,5.5-11.2,2.414-2.388,3.427-4.382,3.427-6.885C113.94,200.362,111.564,196.234,107.178,192.011Z" transform="translate(-90.601 -139.819)" fill="#f4b192"/><g transform="translate(4.614 10.038)"><path d="M299.709,174.8c0-.009,0-.019,0-.028a68.786,68.786,0,0,1-.435-7.468,15.158,15.158,0,0,0-1.4-6.836c-2.147-.62-4.682.465-4.566,3.288C293.661,172.239,295.188,174.534,299.709,174.8Z" transform="translate(-198.573 -160.299)" fill="#ffd0ba"/><path d="M104.791,226.922c2.6,1.962,4.741-2.155,6.03-5.561.926-2.447-5.271-8.7-8.795-5.844-1.332,1.08-2.624,4.856-1.7,6.615A16.067,16.067,0,0,0,104.791,226.922Z" transform="translate(-100.015 -188.081)" fill="#ffd0ba"/><path d="M108.1,266.841c2.721,1.68,5.384-2.4,5.384-5.976,0-2.608-5.935-8.019-9.117-4.909-1.2,1.175-2.122,4.98-1.057,6.613A15.758,15.758,0,0,0,108.1,266.841Z" transform="translate(-101.454 -208.596)" fill="#ffd0ba"/><path d="M105.345,280.4c-3.416.561-3.393,6.251-2.491,7.465a11.87,11.87,0,0,0,4.116,3.144c2.708,1.351,4.188-5.493,4-6.935A16.935,16.935,0,0,1,105.345,280.4Z" transform="translate(-101.2 -221.536)" fill="#ffd0ba"/></g><path d="M272.862,201.3v62.971a9.8,9.8,0,0,1-6.827,9.34l-.034.463s9.8,1.884,9.8-9.8V223.841S272.862,211.919,272.862,201.3Z" transform="translate(-180.035 -171.167)" fill="#de917c"/><path d="M114,140.886a28.412,28.412,0,0,1,2.941,1.091v29.661l-2.016-3.156a5.883,5.883,0,0,1-.925-3.166v-2.17c.807-.3,1.626-.563,2.446-.791-.747-.74-1.581-1.523-2.446-2.356ZM154.422,258.41c19.29-16.606,43.877-1.988,43.877-24.944a9.8,9.8,0,0,1-9.8,9.8H137.744c5.441,5.4,10.927,9.763,15.153,13.594C153.348,257.271,153.864,257.8,154.422,258.41Z" transform="translate(-102.532 -140.363)" fill="#de917c"/><g transform="translate(53.716 105.829)"><path d="M211.728,401.942h68.964l-17.629-42.561a5.881,5.881,0,0,0-7.684-3.183l-48,19.881a5.881,5.881,0,0,0-3.183,7.684Z" transform="translate(-202.01 -355.749)" fill="#232d3b"/><path d="M203.961,407.661h82.226L270.835,370.6a5.881,5.881,0,0,0-7.684-3.183l-59.317,24.57a5.881,5.881,0,0,0-3.183,7.684Z" transform="translate(-200.201 -361.468)" fill="#3a4d63"/><path d="M219.663,427.708a4.411,4.411,0,1,1-4.574-4.242A4.411,4.411,0,0,1,219.663,427.708Z" transform="translate(-205.628 -390.275)" fill="#232d3b"/></g></g><g transform="translate(120.157 87.311)"><path d="M182.763,203.014V124.6c0-5.414-1.1-9.8-2.451-9.8H150.906v1.47c1.354,0,2.451,4.388,2.451,9.8v76.947c0,5.414,3.2,9.8,12.253,9.8h19.6C183.86,212.816,182.763,208.427,182.763,203.014Z" transform="translate(-150.906 -114.794)" fill="#3a4d63"/><path d="M204.818,193.212V124.6c0-5.414-2.194-9.8-4.9-9.8H150.906c2.707,0,4.9,4.388,4.9,9.8v68.615c0,5.414,2.194,9.8,4.9,9.8h49.011C207.012,203.014,204.818,198.625,204.818,193.212Z" transform="translate(-150.906 -114.794)" fill="#fff"/><g transform="translate(10.782 8.332)"><path d="M209.451,135.715H188.866a1.96,1.96,0,1,1,0-3.921h20.585a1.96,1.96,0,1,1,0,3.921Z" transform="translate(-180.044 -131.794)" fill="#586f8c"/><g transform="translate(0 11.272)"><path d="M199.142,283.244H174.115a1.21,1.21,0,0,1-1.21-1.21V282a1.21,1.21,0,0,1,1.21-1.21h25.027a1.21,1.21,0,0,1,1.21,1.21v.031A1.21,1.21,0,0,1,199.142,283.244Z" transform="translate(-172.905 -219.039)" fill="#b1b7c4"/><path d="M199.142,269.244H174.115a1.21,1.21,0,0,1-1.21-1.21V268a1.21,1.21,0,0,1,1.21-1.21h25.027a1.21,1.21,0,0,1,1.21,1.21v.031A1.21,1.21,0,0,1,199.142,269.244Z" transform="translate(-172.905 -211.901)" fill="#b1b7c4"/><path d="M199.142,255.244H174.115a1.21,1.21,0,0,1-1.21-1.21V254a1.21,1.21,0,0,1,1.21-1.21h25.027a1.21,1.21,0,0,1,1.21,1.21v.031A1.21,1.21,0,0,1,199.142,255.244Z" transform="translate(-172.905 -204.762)" fill="#b1b7c4"/><path d="M199.142,241.244H174.115a1.21,1.21,0,0,1-1.21-1.21V240a1.21,1.21,0,0,1,1.21-1.21h25.027a1.21,1.21,0,0,1,1.21,1.21v.031A1.21,1.21,0,0,1,199.142,241.244Z" transform="translate(-172.905 -197.624)" fill="#b1b7c4"/><path d="M199.142,227.244H174.115a1.21,1.21,0,0,1-1.21-1.21V226a1.21,1.21,0,0,1,1.21-1.21h25.027a1.21,1.21,0,0,1,1.21,1.21v.031A1.21,1.21,0,0,1,199.142,227.244Z" transform="translate(-172.905 -190.485)" fill="#b1b7c4"/><path d="M199.142,213.244H174.115a1.21,1.21,0,0,1-1.21-1.21V212a1.21,1.21,0,0,1,1.21-1.21h25.027a1.21,1.21,0,0,1,1.21,1.21v.031A1.21,1.21,0,0,1,199.142,213.244Z" transform="translate(-172.905 -183.347)" fill="#b1b7c4"/><path d="M199.142,199.244H174.115a1.21,1.21,0,0,1-1.21-1.21V198a1.21,1.21,0,0,1,1.21-1.21h25.027a1.21,1.21,0,0,1,1.21,1.21v.031A1.21,1.21,0,0,1,199.142,199.244Z" transform="translate(-172.905 -176.208)" fill="#b1b7c4"/><path d="M199.142,185.244H174.115a1.21,1.21,0,0,1-1.21-1.21V184a1.21,1.21,0,0,1,1.21-1.21h25.027a1.21,1.21,0,0,1,1.21,1.21v.031A1.21,1.21,0,0,1,199.142,185.244Z" transform="translate(-172.905 -169.07)" fill="#b1b7c4"/><path d="M199.142,171.244H174.115a1.21,1.21,0,0,1-1.21-1.21V170a1.21,1.21,0,0,1,1.21-1.21h25.027a1.21,1.21,0,0,1,1.21,1.21v.031A1.21,1.21,0,0,1,199.142,171.244Z" transform="translate(-172.905 -161.931)" fill="#b1b7c4"/><path d="M199.142,157.244H174.115a1.21,1.21,0,0,1-1.21-1.21V156a1.21,1.21,0,0,1,1.21-1.21h25.027a1.21,1.21,0,0,1,1.21,1.21v.031A1.21,1.21,0,0,1,199.142,157.244Z" transform="translate(-172.905 -154.793)" fill="#b1b7c4"/></g><g transform="translate(30.387 11.272)"><path d="M241.537,227.244h-5.422a1.21,1.21,0,0,1-1.21-1.21V226a1.21,1.21,0,0,1,1.21-1.21h5.422a1.21,1.21,0,0,1,1.21,1.21v.031A1.21,1.21,0,0,1,241.537,227.244Z" transform="translate(-234.905 -190.485)" fill="#586f8c"/><path d="M241.537,213.244h-5.422a1.21,1.21,0,0,1-1.21-1.21V212a1.21,1.21,0,0,1,1.21-1.21h5.422a1.21,1.21,0,0,1,1.21,1.21v.031A1.21,1.21,0,0,1,241.537,213.244Z" transform="translate(-234.905 -183.347)" fill="#586f8c"/><path d="M241.537,199.244h-5.422a1.21,1.21,0,0,1-1.21-1.21V198a1.21,1.21,0,0,1,1.21-1.21h5.422a1.21,1.21,0,0,1,1.21,1.21v.031A1.21,1.21,0,0,1,241.537,199.244Z" transform="translate(-234.905 -176.208)" fill="#586f8c"/><path d="M241.537,185.244h-5.422a1.21,1.21,0,0,1-1.21-1.21V184a1.21,1.21,0,0,1,1.21-1.21h5.422a1.21,1.21,0,0,1,1.21,1.21v.031A1.21,1.21,0,0,1,241.537,185.244Z" transform="translate(-234.905 -169.07)" fill="#586f8c"/><path d="M241.537,171.244h-5.422a1.21,1.21,0,0,1-1.21-1.21V170a1.21,1.21,0,0,1,1.21-1.21h5.422a1.21,1.21,0,0,1,1.21,1.21v.031A1.21,1.21,0,0,1,241.537,171.244Z" transform="translate(-234.905 -161.931)" fill="#586f8c"/><path d="M241.537,157.244h-5.422a1.21,1.21,0,0,1-1.21-1.21V156a1.21,1.21,0,0,1,1.21-1.21h5.422a1.21,1.21,0,0,1,1.21,1.21v.031A1.21,1.21,0,0,1,241.537,157.244Z" transform="translate(-234.905 -154.793)" fill="#586f8c"/></g></g><path d="M224.818,244.6v9.8c0,5.414-2.194,9.8-4.9,9.8H170.906c2.707,0,4.9-4.388,4.9-9.8v-9.8c0-5.414,2.194-9.8,4.9-9.8h49.011C227.012,234.794,224.818,239.182,224.818,244.6Z" transform="translate(-161.104 -175.981)" fill="#b1b7c4"/><path d="M244.818,275.473V244.6c0-5.414-2.194-9.8-4.9-9.8H190.906c2.707,0,4.9,4.388,4.9,9.8v30.877c0,5.414,2.194,9.8,4.9,9.8h49.011C247.012,285.275,244.818,280.886,244.818,275.473Z" transform="translate(-171.302 -175.981)" fill="#fff"/><g transform="translate(30.386 64.204)"><path d="M239.142,318.244H214.115a1.21,1.21,0,0,1-1.21-1.21V317a1.21,1.21,0,0,1,1.21-1.21h25.027a1.21,1.21,0,0,1,1.21,1.21v.031A1.209,1.209,0,0,1,239.142,318.244Z" transform="translate(-212.905 -281.485)" fill="#b1b7c4"/><path d="M239.142,304.244H214.115a1.21,1.21,0,0,1-1.21-1.21V303a1.21,1.21,0,0,1,1.21-1.21h25.027a1.21,1.21,0,0,1,1.21,1.21v.031A1.209,1.209,0,0,1,239.142,304.244Z" transform="translate(-212.905 -274.347)" fill="#b1b7c4"/><path d="M239.142,290.244H214.115a1.21,1.21,0,0,1-1.21-1.21V289a1.21,1.21,0,0,1,1.21-1.21h25.027a1.21,1.21,0,0,1,1.21,1.21v.031A1.209,1.209,0,0,1,239.142,290.244Z" transform="translate(-212.905 -267.208)" fill="#b1b7c4"/><path d="M239.142,276.244H214.115a1.21,1.21,0,0,1-1.21-1.21V275a1.21,1.21,0,0,1,1.21-1.21h25.027a1.21,1.21,0,0,1,1.21,1.21v.031A1.209,1.209,0,0,1,239.142,276.244Z" transform="translate(-212.905 -260.07)" fill="#b1b7c4"/><path d="M239.142,262.244H214.115a1.21,1.21,0,0,1-1.21-1.21V261a1.21,1.21,0,0,1,1.21-1.21h25.027a1.21,1.21,0,0,1,1.21,1.21v.031A1.209,1.209,0,0,1,239.142,262.244Z" transform="translate(-212.905 -252.931)" fill="#b1b7c4"/><path d="M239.142,248.244H214.115a1.21,1.21,0,0,1-1.21-1.21V247a1.21,1.21,0,0,1,1.21-1.21h25.027a1.21,1.21,0,0,1,1.21,1.21v.031A1.21,1.21,0,0,1,239.142,248.244Z" transform="translate(-212.905 -245.793)" fill="#b1b7c4"/><g transform="translate(30.387)"><path d="M281.537,290.244h-5.422a1.21,1.21,0,0,1-1.21-1.21V289a1.21,1.21,0,0,1,1.21-1.21h5.422a1.21,1.21,0,0,1,1.21,1.21v.031A1.209,1.209,0,0,1,281.537,290.244Z" transform="translate(-274.905 -267.208)" fill="#586f8c"/><path d="M281.537,276.244h-5.422a1.21,1.21,0,0,1-1.21-1.21V275a1.21,1.21,0,0,1,1.21-1.21h5.422a1.21,1.21,0,0,1,1.21,1.21v.031A1.209,1.209,0,0,1,281.537,276.244Z" transform="translate(-274.905 -260.07)" fill="#586f8c"/><path d="M281.537,262.244h-5.422a1.21,1.21,0,0,1-1.21-1.21V261a1.21,1.21,0,0,1,1.21-1.21h5.422a1.21,1.21,0,0,1,1.21,1.21v.031A1.209,1.209,0,0,1,281.537,262.244Z" transform="translate(-274.905 -252.931)" fill="#586f8c"/><path d="M281.537,248.244h-5.422a1.21,1.21,0,0,1-1.21-1.21V247a1.21,1.21,0,0,1,1.21-1.21h5.422a1.21,1.21,0,0,1,1.21,1.21v.031A1.21,1.21,0,0,1,281.537,248.244Z" transform="translate(-274.905 -245.793)" fill="#586f8c"/></g></g><path d="M220.708,297.793c-2.707,0-4.9,4.388-4.9,9.8s-2.194,9.8-4.9,9.8h49.011c2.707,0,4.9-4.388,4.9-9.8s2.194-9.8,4.9-9.8Z" transform="translate(-181.499 -208.103)" fill="#b1b7c4"/><path d="M279.917,297.793H230.906c2.1,0,3.891,2.652,4.586,6.371H284.5C283.807,300.446,282.019,297.793,279.917,297.793Z" transform="translate(-191.697 -208.103)" fill="#fff"/></g><g transform="translate(169.704 64.325)"><path d="M289.738,67.894H260.822c-6.179,0-8.822,2.643-8.822,8.822V98.281c0,6.179,2.643,8.822,8.822,8.822v9.8l7.352-9.8h21.565c6.179,0,8.822-2.643,8.822-8.822V76.716C298.56,70.537,295.918,67.894,289.738,67.894Z" transform="translate(-252 -67.894)" fill="#fa324a"/><path d="M291.873,104.947v2.1h-3.466v-2.2a14.942,14.942,0,0,1-8.264-3.7l3.2-3.832a11.7,11.7,0,0,0,7.531,2.9c2.133,0,3.232-.866,3.232-2.1,0-1.366-1.066-1.666-4.4-2.466-4.9-1.1-8.531-2.433-8.531-7.032,0-3.965,2.866-6.731,7.232-7.232v-2.1h3.466v2.1A13.249,13.249,0,0,1,299.2,84.42l-2.9,4.065a10.969,10.969,0,0,0-6.532-2.432c-1.833,0-2.866.867-2.866,2,0,1.4,1.1,1.866,4.5,2.6,5.132,1.1,8.431,2.566,8.431,6.865C299.837,101.782,296.838,104.547,291.873,104.947Z" transform="translate(-266.35 -73.704)" fill="#fafafa"/></g></g></g></g></svg>