<svg xmlns="http://www.w3.org/2000/svg" width="129.911" height="120.813" viewBox="0 0 129.911 120.813"><g transform="translate(0 -17.927)"><g transform="translate(0 17.927)"><path d="M127.373,27.774h-5.336a15.021,15.021,0,0,0-14.048-9.847H105.4c-.374,0-.754.019-1.147.049-.383-.03-.761-.049-1.127-.049H23.223A14.97,14.97,0,0,0,9.176,27.774H2.537A2.537,2.537,0,0,0,0,30.311V48.58a2.537,2.537,0,0,0,2.537,2.537H8.279V136.2a2.537,2.537,0,0,0,2.537,2.537H93a2.537,2.537,0,0,0,2.537-2.537V120.81H120.4a2.537,2.537,0,0,0,2.537-2.537V51.117h4.437a2.537,2.537,0,0,0,2.537-2.537V30.312A2.537,2.537,0,0,0,127.373,27.774ZM8.279,32.874V46.042h-3.2V32.848h3.2Zm82.18,100.792H13.353V122.882H90.459v10.783Zm0-31.952v16.095H13.353V111.5H70.97a2.537,2.537,0,1,0,0-5.075H13.353V99.543H90.459v2.171Zm0-7.245H13.353V81.957H90.459V94.468Zm0-17.585H13.353V65.578H90.459V76.883Zm3.619-53.755-.031.036-.02.023-.1.112c-.031.038-.061.076-.092.114q-.092.113-.183.228l-.048.061c-.039.049-.078.1-.114.147-.021.028-.041.057-.063.086q-.1.135-.2.273l-.016.022c-.045.063-.09.125-.132.187l-.063.094c-.057.084-.112.169-.168.254l-.015.023c-.047.073-.095.146-.139.219l-.025.042c-.067.11-.133.22-.2.332-.046.078-.092.157-.135.236l-.014.026c-.052.094-.1.189-.153.284l-.006.012c-.051.1-.1.194-.15.293s-.1.2-.143.3l-.018.038c-.027.059-.054.118-.08.177-.059.131-.116.262-.172.4-.01.024-.02.047-.03.071-.022.054-.043.108-.064.162q-.078.2-.15.394c-.013.036-.027.071-.039.106s-.033.1-.049.144q-.064.188-.124.377c-.017.052-.034.1-.05.156s-.026.092-.039.139q-.049.167-.094.335c-.02.073-.04.145-.057.215-.009.038-.018.078-.027.116q-.04.167-.077.334l-.019.087v.008s0,.006,0,.009-.005.031-.009.047q-.068.327-.121.658c-.006.038-.012.075-.018.112q-.048.312-.082.626c-.005.047-.011.093-.016.14-.02.2-.036.4-.048.607,0,.05-.008.1-.01.151-.012.247-.02.494-.02.742V60.5h-77.1V32.875q0-.256.013-.512c0-.044.007-.088.01-.132.008-.124.016-.249.029-.373.009-.088.022-.175.033-.263s.018-.155.03-.232c.019-.121.042-.241.065-.361.008-.041.014-.083.023-.124A9.887,9.887,0,0,1,23.223,23H94.184C94.148,23.043,94.114,23.086,94.078,23.128ZM97.01,27.68c.027-.044.056-.088.084-.132l.034-.053c.044-.068.088-.136.135-.2.023-.033.047-.066.071-.1l.039-.054c.054-.075.107-.15.164-.225l.12-.152c.055-.07.11-.141.164-.2l.08-.092c.071-.082.141-.165.214-.245l.019-.021a9.911,9.911,0,0,1,2.447-1.937l.014-.008c.122-.069.246-.134.365-.194l.023-.012c.13-.065.262-.127.376-.179l.033-.015q.2-.089.4-.169l.014-.005q.207-.081.42-.153l.008,0a9.789,9.789,0,0,1,1.085-.3l.056-.012c.155-.032.311-.06.468-.084l.106-.017c.18-.026.36-.049.541-.065h0l.091-.01c.286-.024.554-.036.816-.036h2.586a9.923,9.923,0,0,1,8.45,4.772H96.954C96.972,27.743,96.991,27.712,97.01,27.68Zm20.851,88.054H95.534V104.251h22.328Zm0-16.559H95.534V92.611h7.4a2.537,2.537,0,1,0,0-5.075h-7.4V80.911h22.328Zm0-23.34H95.534V60.711h22.328Zm0-20.2H95.534V51.117h22.328Zm2.537-9.594H95.533V32.874c0-.009,0-.017,0-.025h29.3V46.042H120.4Z" transform="translate(0 -17.927)" fill="#7d8c48"/></g><g transform="translate(77.24 106.364)"><path d="M309.443,368.512a2.564,2.564,0,0,0-.145-.474,2.5,2.5,0,0,0-.233-.439,2.592,2.592,0,0,0-.317-.386,2.429,2.429,0,0,0-.386-.315,2.573,2.573,0,0,0-.436-.233,2.527,2.527,0,0,0-1.467-.145,2.383,2.383,0,0,0-.474.145,2.5,2.5,0,0,0-.439.233,2.467,2.467,0,0,0-.7.7,2.505,2.505,0,0,0-.233.439,2.56,2.56,0,0,0-.145.474,2.5,2.5,0,0,0-.051.495,2.557,2.557,0,0,0,.743,1.794,2.439,2.439,0,0,0,.386.315,2.506,2.506,0,0,0,.439.233,2.385,2.385,0,0,0,.474.145,2.5,2.5,0,0,0,.495.051,2.544,2.544,0,0,0,.5-.051,2.491,2.491,0,0,0,.474-.145,2.573,2.573,0,0,0,.436-.233,2.429,2.429,0,0,0,.386-.315,2.557,2.557,0,0,0,.743-1.794A2.494,2.494,0,0,0,309.443,368.512Z" transform="translate(-304.417 -366.471)" fill="#7d8c48"/></g><g transform="translate(109.207 87.476)"><path d="M434.734,292.775a2.577,2.577,0,0,0-.386-.315,2.5,2.5,0,0,0-.439-.233,2.562,2.562,0,0,0-.474-.145,2.5,2.5,0,0,0-.99,0,2.647,2.647,0,0,0-.477.145,2.574,2.574,0,0,0-.822.548,2.547,2.547,0,0,0-.315.386,2.7,2.7,0,0,0-.233.439,2.38,2.38,0,0,0-.145.474,2.448,2.448,0,0,0,0,.992,2.38,2.38,0,0,0,.145.474,2.7,2.7,0,0,0,.233.439,2.545,2.545,0,0,0,.315.386,2.426,2.426,0,0,0,.386.315,2.573,2.573,0,0,0,.436.233,2.647,2.647,0,0,0,.477.145,2.5,2.5,0,0,0,.495.051,2.524,2.524,0,0,0,2.108-1.129,2.7,2.7,0,0,0,.233-.439,2.382,2.382,0,0,0,.145-.474,2.527,2.527,0,0,0,.051-.5A2.561,2.561,0,0,0,434.734,292.775Z" transform="translate(-430.403 -292.033)" fill="#7d8c48"/></g></g></svg>