<svg xmlns="http://www.w3.org/2000/svg" width="127.382" height="96.367" viewBox="0 0 127.382 96.367"><g transform="translate(0 -62.331)"><g transform="translate(41.454 70.75)"><rect width="3.4" height="3.732" fill="#7d8c48"/></g><g transform="translate(29.014 70.75)"><rect width="3.732" height="3.732" fill="#7d8c48"/></g><g transform="translate(22.794 70.75)"><rect width="3.732" height="3.732" fill="#7d8c48"/></g><g transform="translate(35.234 70.75)"><rect width="3.732" height="3.732" fill="#7d8c48"/></g><g transform="translate(0 82.336)"><path d="M111.166,173.717H18.082V142.741H14.35v31.083A16.24,16.24,0,0,0,0,189.933v2.87a16.231,16.231,0,0,0,8.583,14.3A6.9,6.9,0,0,0,13.252,219.1h97.914a16.235,16.235,0,0,0,16.217-16.217V189.933A16.235,16.235,0,0,0,111.166,173.717Zm12.485,29.169a12.5,12.5,0,0,1-12.485,12.485H13.252a3.176,3.176,0,0,1,0-6.352H34.707v-3.732H16.216A12.5,12.5,0,0,1,3.732,192.8v-2.87a12.5,12.5,0,0,1,12.484-12.484h94.949a12.5,12.5,0,0,1,12.485,12.485Z" transform="translate(0 -142.741)" fill="#7d8c48"/></g><g transform="translate(52.122 144.883)"><rect width="31.846" height="3.732" fill="#7d8c48"/></g><g transform="translate(45.902 144.883)"><rect width="3.732" height="3.732" fill="#7d8c48"/></g><g transform="translate(39.683 144.883)"><rect width="3.732" height="3.732" fill="#7d8c48"/></g><g transform="translate(22.959 104.643)"><rect width="29.358" height="3.732" fill="#7d8c48"/></g><g transform="translate(54.804 104.643)"><rect width="3.732" height="3.732" fill="#7d8c48"/></g><g transform="translate(61.024 104.643)"><rect width="3.732" height="3.732" fill="#7d8c48"/></g><g transform="translate(34.707 123.395)"><path d="M213.968,307.773H139.5V311.5h74.468a4.529,4.529,0,0,1,4.524,4.524v8.708a4.529,4.529,0,0,1-4.524,4.524H193.737v3.732h20.231a8.265,8.265,0,0,0,8.256-8.256v-8.708A8.265,8.265,0,0,0,213.968,307.773Z" transform="translate(-139.5 -307.773)" fill="#7d8c48"/></g><g transform="translate(9.952 123.395)"><path d="M47.238,318.517a3.506,3.506,0,0,1,0-7.012H59.779v-3.732H47.238a7.238,7.238,0,1,0,0,14.476h68.148v-3.732Z" transform="translate(-40 -307.773)" fill="#7d8c48"/></g><g transform="translate(90.561 134.14)"><rect width="3.732" height="3.732" fill="#7d8c48"/></g><g transform="translate(103.001 134.14)"><rect width="3.732" height="3.732" fill="#7d8c48"/></g><g transform="translate(96.781 134.14)"><rect width="3.732" height="3.732" fill="#7d8c48"/></g><g transform="translate(0 62.331)"><path d="M111.166,62.331H16.216A16.235,16.235,0,0,0,0,78.548v38.541H3.732V78.548A12.5,12.5,0,0,1,16.216,66.063H109.3V86.947h3.732V66.2A12.5,12.5,0,0,1,123.65,78.548v38.541h3.732V78.548A16.235,16.235,0,0,0,111.166,62.331Z" transform="translate(0 -62.331)" fill="#7d8c48"/></g><g transform="translate(117.057 82.336)"><g transform="translate(0 0)"><rect width="3.732" height="3.732" fill="#7d8c48"/></g></g><g transform="translate(117.057 76.116)"><rect width="3.732" height="3.732" fill="#7d8c48"/></g><g transform="translate(117.057 88.556)"><g transform="translate(0 0)"><rect width="3.732" height="20.249" fill="#7d8c48"/></g></g><g transform="translate(70.3 72.037)"><g transform="translate(0 0)"><path d="M316.992,113.438c-.219-.161-5.024-3.638-9.8-2.893-.771-4.773-5.566-8.263-5.787-8.421l-1.087-.78-1.087.78c-.221.158-5.016,3.649-5.787,8.421-4.777-.746-9.581,2.732-9.8,2.893l-1.078.792.4,1.275c.082.259,1.916,5.9,6.214,8.111-2.189,4.31-.371,9.956-.286,10.214l.419,1.271,1.338.011h.032c.547,0,6.288-.082,9.631-3.42,3.343,3.339,9.085,3.42,9.631,3.42h.032l1.338-.011.419-1.271c.085-.258,1.9-5.9-.286-10.214,4.3-2.212,6.132-7.852,6.214-8.111l.4-1.275Zm-29.936,2.256c1.68-.928,4.368-1.991,6.483-1.3.08.026.161.055.241.087a14.069,14.069,0,0,0,3.369,5.221c-1.567.75-3.762,1.471-5.621.865C289.411,119.875,287.865,117.431,287.055,115.693Zm11.061,12.85c-1.31,1.8-4.106,2.509-6.01,2.741-.334-1.721-.62-4.67.764-6.567q.075-.1.157-.2a14.072,14.072,0,0,0,6.008-1.585C299.263,124.653,299.27,126.963,298.117,128.543Zm1.519-11.639c-1.2-1.257-2.564-3.12-2.564-5.076,0-2.226,1.845-4.453,3.246-5.761,1.4,1.31,3.247,3.536,3.247,5.761q0,.127-.008.256A14.067,14.067,0,0,0,299.635,116.9Zm8.9,14.374c-1.741-.208-4.635-.837-6.019-2.734q-.086-.118-.166-.246a14.12,14.12,0,0,0,.339-6.173c1.711.309,3.919,1.009,5.074,2.593C309.074,126.514,308.9,129.395,308.537,131.278Zm.57-10.713q-.121.039-.246.072a14.074,14.074,0,0,0-5.8-2.233c.874-1.6,2.253-3.431,4.037-4.012,2.116-.689,4.8.374,6.483,1.3C312.769,117.433,311.224,119.876,309.108,120.565Z" transform="translate(-282.565 -101.344)" fill="#7d8c48"/></g></g></g></svg>